# xmcd CD database file
#
# Track frame offsets:
#	150
#	37768
#	57833
#	86673
#	121978
#	148585
#	172088
#
# Disc length: 2751 seconds
#
# Revision: 0
# Processed by: cddbd v1.5.2PL0 Copyright (c) Steve Scherf et al.
# Submitted via: CDex 1.70beta2
#
DISCID=580abd07
DTITLE=B4 - Corazón de bronce CD2
DYEAR=2006
DGENRE=Jazz
TTITLE0=La buena nueva
TTITLE1=Un amanecer
TTITLE2=Fixión
TTITLE3=Summertime
TTITLE4=Recuerdos
TTITLE5=Zurbia
TTITLE6=Escuetamente trabajando
EXTD=YEAR: 2006
EXTT0=
EXTT1=
EXTT2=
EXTT3=
EXTT4=
EXTT5=
EXTT6=
PLAYORDER=
